<svg width="24" height="24" viewBox="0 0 24 24" fill="none" xmlns="http://www.w3.org/2000/svg">
<g clip-path="url(#clip0_2581_25536)">
<path fill-rule="evenodd" clip-rule="evenodd" d="M11.616 5C11.477 5.00028 11.3394 5.02809 11.2112 5.08181C11.083 5.13553 10.9667 5.2141 10.869 5.313L4.31199 11.823C4.21363 11.9208 4.13558 12.0372 4.08232 12.1653C4.02906 12.2934 4.00165 12.4308 4.00165 12.5695C4.00165 12.7082 4.02906 12.8456 4.08232 12.9737C4.13558 13.1018 4.21363 13.2182 4.31199 13.316L10.867 19.828C10.9655 19.9255 11.0822 20.0027 11.2105 20.0551C11.3388 20.1074 11.4762 20.1341 11.6148 20.1334C11.7534 20.1327 11.8905 20.1047 12.0183 20.051C12.146 19.9973 12.262 19.919 12.3595 19.8205C12.457 19.722 12.5341 19.6053 12.5865 19.477C12.6389 19.3487 12.6655 19.2113 12.6648 19.0727C12.6641 18.9341 12.6362 18.797 12.5825 18.6692C12.5288 18.5415 12.4505 18.4255 12.352 18.328L7.61599 13.628H18.939C19.2183 13.628 19.4861 13.5171 19.6836 13.3196C19.881 13.1221 19.992 12.8543 19.992 12.575C19.992 12.2957 19.881 12.0279 19.6836 11.8304C19.4861 11.6329 19.2183 11.522 18.939 11.522H7.60499L12.352 6.806C12.4992 6.65907 12.5997 6.47187 12.6407 6.26797C12.6817 6.06407 12.6615 5.85258 12.5826 5.66014C12.5037 5.4677 12.3697 5.3029 12.1973 5.1865C12.0249 5.0701 11.822 5.00729 11.614 5.006L11.616 5Z" fill="#009BD2"/>
</g>
<defs>
<clipPath id="clip0_2581_25536">
<rect width="24" height="24" fill="white"/>
</clipPath>
</defs>
</svg>
